<mxfile host="app.diagrams.net" agent="Mozilla/5.0 (Windows NT 10.0; Win64; x64) AppleWebKit/537.36 (KHTML, like Gecko) Chrome/137.0.0.0 Safari/537.36" version="27.1.4">
  <diagram name="Page-1" id="9hR182NXfuW4IA8Gi7ET">
    <mxGraphModel dx="928" dy="478" grid="1" gridSize="10" guides="1" tooltips="1" connect="1" arrows="1" fold="1" page="1" pageScale="1" pageWidth="850" pageHeight="1100" math="0" shadow="0">
      <root>
        <mxCell id="0" />
        <mxCell id="1" parent="0" />
        <mxCell id="OjE7mfVQtfTafqGTXapx-9" value="Yes" style="edgeStyle=orthogonalEdgeStyle;rounded=0;orthogonalLoop=1;jettySize=auto;html=1;" edge="1" parent="1" source="OjE7mfVQtfTafqGTXapx-1" target="OjE7mfVQtfTafqGTXapx-3">
          <mxGeometry relative="1" as="geometry" />
        </mxCell>
        <mxCell id="OjE7mfVQtfTafqGTXapx-11" value="No" style="edgeStyle=orthogonalEdgeStyle;rounded=0;orthogonalLoop=1;jettySize=auto;html=1;" edge="1" parent="1" source="OjE7mfVQtfTafqGTXapx-1" target="OjE7mfVQtfTafqGTXapx-10">
          <mxGeometry relative="1" as="geometry" />
        </mxCell>
        <mxCell id="OjE7mfVQtfTafqGTXapx-1" value="1. Received IFA/MMS?" style="rounded=1;whiteSpace=wrap;html=1;" vertex="1" parent="1">
          <mxGeometry x="160" y="40" width="120" height="60" as="geometry" />
        </mxCell>
        <mxCell id="OjE7mfVQtfTafqGTXapx-27" value="No" style="edgeStyle=orthogonalEdgeStyle;rounded=0;orthogonalLoop=1;jettySize=auto;html=1;entryX=0;entryY=0.5;entryDx=0;entryDy=0;" edge="1" parent="1" source="OjE7mfVQtfTafqGTXapx-2" target="OjE7mfVQtfTafqGTXapx-25">
          <mxGeometry relative="1" as="geometry" />
        </mxCell>
        <mxCell id="OjE7mfVQtfTafqGTXapx-28" value="Yes" style="edgeStyle=orthogonalEdgeStyle;rounded=0;orthogonalLoop=1;jettySize=auto;html=1;" edge="1" parent="1" source="OjE7mfVQtfTafqGTXapx-2" target="OjE7mfVQtfTafqGTXapx-26">
          <mxGeometry relative="1" as="geometry">
            <Array as="points">
              <mxPoint x="220" y="430" />
            </Array>
          </mxGeometry>
        </mxCell>
        <mxCell id="OjE7mfVQtfTafqGTXapx-2" value="5. Received IV iron?" style="rounded=1;whiteSpace=wrap;html=1;" vertex="1" parent="1">
          <mxGeometry x="160" y="280" width="120" height="60" as="geometry" />
        </mxCell>
        <mxCell id="OjE7mfVQtfTafqGTXapx-17" value="Yes" style="edgeStyle=orthogonalEdgeStyle;rounded=0;orthogonalLoop=1;jettySize=auto;html=1;entryX=0.5;entryY=0;entryDx=0;entryDy=0;" edge="1" parent="1" source="OjE7mfVQtfTafqGTXapx-3" target="OjE7mfVQtfTafqGTXapx-2">
          <mxGeometry relative="1" as="geometry" />
        </mxCell>
        <mxCell id="OjE7mfVQtfTafqGTXapx-19" value="No" style="edgeStyle=orthogonalEdgeStyle;rounded=0;orthogonalLoop=1;jettySize=auto;html=1;entryX=0;entryY=0.5;entryDx=0;entryDy=0;" edge="1" parent="1" source="OjE7mfVQtfTafqGTXapx-3" target="OjE7mfVQtfTafqGTXapx-18">
          <mxGeometry relative="1" as="geometry" />
        </mxCell>
        <mxCell id="OjE7mfVQtfTafqGTXapx-3" value="3. Attended first trimester ANC visit?" style="rounded=1;whiteSpace=wrap;html=1;" vertex="1" parent="1">
          <mxGeometry x="160" y="160" width="120" height="60" as="geometry" />
        </mxCell>
        <mxCell id="OjE7mfVQtfTafqGTXapx-16" value="No" style="edgeStyle=orthogonalEdgeStyle;rounded=0;orthogonalLoop=1;jettySize=auto;html=1;" edge="1" parent="1" source="OjE7mfVQtfTafqGTXapx-10" target="OjE7mfVQtfTafqGTXapx-15">
          <mxGeometry relative="1" as="geometry" />
        </mxCell>
        <mxCell id="OjE7mfVQtfTafqGTXapx-29" value="Yes" style="edgeStyle=orthogonalEdgeStyle;rounded=0;orthogonalLoop=1;jettySize=auto;html=1;entryX=0;entryY=0.25;entryDx=0;entryDy=0;" edge="1" parent="1" source="OjE7mfVQtfTafqGTXapx-10" target="OjE7mfVQtfTafqGTXapx-21">
          <mxGeometry x="-0.3333" relative="1" as="geometry">
            <Array as="points">
              <mxPoint x="420" y="120" />
              <mxPoint x="520" y="120" />
              <mxPoint x="520" y="170" />
            </Array>
            <mxPoint as="offset" />
          </mxGeometry>
        </mxCell>
        <mxCell id="OjE7mfVQtfTafqGTXapx-10" value="2. Received IV iron?" style="rounded=1;whiteSpace=wrap;html=1;" vertex="1" parent="1">
          <mxGeometry x="360" y="40" width="120" height="60" as="geometry" />
        </mxCell>
        <mxCell id="OjE7mfVQtfTafqGTXapx-15" value="&lt;b&gt;Use equation&lt;/b&gt;&lt;div&gt;&lt;b&gt;I&lt;/b&gt;&lt;/div&gt;" style="whiteSpace=wrap;html=1;aspect=fixed;" vertex="1" parent="1">
          <mxGeometry x="560" y="30" width="80" height="80" as="geometry" />
        </mxCell>
        <mxCell id="OjE7mfVQtfTafqGTXapx-22" value="No" style="edgeStyle=orthogonalEdgeStyle;rounded=0;orthogonalLoop=1;jettySize=auto;html=1;" edge="1" parent="1" source="OjE7mfVQtfTafqGTXapx-18" target="OjE7mfVQtfTafqGTXapx-21">
          <mxGeometry relative="1" as="geometry" />
        </mxCell>
        <mxCell id="OjE7mfVQtfTafqGTXapx-24" value="Yes" style="edgeStyle=orthogonalEdgeStyle;rounded=0;orthogonalLoop=1;jettySize=auto;html=1;entryX=0;entryY=0.75;entryDx=0;entryDy=0;" edge="1" parent="1" source="OjE7mfVQtfTafqGTXapx-18" target="OjE7mfVQtfTafqGTXapx-21">
          <mxGeometry x="-0.2174" relative="1" as="geometry">
            <Array as="points">
              <mxPoint x="420" y="260" />
              <mxPoint x="520" y="260" />
              <mxPoint x="520" y="210" />
            </Array>
            <mxPoint as="offset" />
          </mxGeometry>
        </mxCell>
        <mxCell id="OjE7mfVQtfTafqGTXapx-18" value="4. Received IV iron?" style="rounded=1;whiteSpace=wrap;html=1;" vertex="1" parent="1">
          <mxGeometry x="360" y="160" width="120" height="60" as="geometry" />
        </mxCell>
        <mxCell id="OjE7mfVQtfTafqGTXapx-21" value="&lt;b&gt;Use equation II&lt;/b&gt;" style="whiteSpace=wrap;html=1;aspect=fixed;" vertex="1" parent="1">
          <mxGeometry x="560" y="150" width="80" height="80" as="geometry" />
        </mxCell>
        <mxCell id="OjE7mfVQtfTafqGTXapx-25" value="&lt;b&gt;Use equation III&lt;/b&gt;" style="whiteSpace=wrap;html=1;aspect=fixed;" vertex="1" parent="1">
          <mxGeometry x="560" y="270" width="80" height="80" as="geometry" />
        </mxCell>
        <mxCell id="OjE7mfVQtfTafqGTXapx-26" value="&lt;b&gt;Use equation IV&lt;/b&gt;" style="whiteSpace=wrap;html=1;aspect=fixed;" vertex="1" parent="1">
          <mxGeometry x="560" y="390" width="80" height="80" as="geometry" />
        </mxCell>
      </root>
    </mxGraphModel>
  </diagram>
</mxfile>
